<svg width="1200" height="1400" viewBox="0 0 1200 1400" fill="none" xmlns="http://www.w3.org/2000/svg">
  <rect width="1200" height="1400" rx="48" fill="url(#paint0_linear)"/>
  <path d="M0 876C198 832 376 857 543 924C690 983 844 1018 1200 911V1400H0V876Z" fill="#E7D5B2"/>
  <path d="M0 904C223 868 404 888 592 982C754 1064 962 1091 1200 1008V1400H0V904Z" fill="#C9A46A"/>
  <path d="M0 767C223 707 421 723 611 801C772 867 983 894 1200 832V1064C992 1120 764 1092 569 1002C384 917 211 901 0 940V767Z" fill="#1382A0"/>
  <path d="M0 656C188 593 364 601 548 676C748 758 936 774 1200 688V860C979 911 759 885 566 808C392 739 204 724 0 791V656Z" fill="#2EA4C0"/>
  <path d="M0 0H1200V500C949 583 713 563 524 495C345 430 151 405 0 450V0Z" fill="url(#paint1_linear)"/>
  <circle cx="906" cy="273" r="86" fill="#FFF4CC"/>
  <path d="M822 582C758 582 707 633 707 697V1047C707 1087 739 1120 779 1120H974C1014 1120 1046 1087 1046 1047V697C1046 633 995 582 931 582H822Z" fill="#F8FAFC"/>
  <path d="M696 629L1058 597" stroke="#E4EEF5" stroke-width="18"/>
  <path d="M723 761H1031" stroke="#E2E8F0" stroke-width="12"/>
  <path d="M723 824H1031" stroke="#E2E8F0" stroke-width="12"/>
  <path d="M730 979C730 947 756 921 788 921H967C999 921 1025 947 1025 979V1065H730V979Z" fill="#D2B48A"/>
  <path d="M783 820L866 884" stroke="#A66E3A" stroke-width="18" stroke-linecap="round"/>
  <path d="M866 884L951 792" stroke="#A66E3A" stroke-width="18" stroke-linecap="round"/>
  <path d="M862 885L925 987" stroke="#8B5E34" stroke-width="16" stroke-linecap="round"/>
  <path d="M868 885L804 988" stroke="#8B5E34" stroke-width="16" stroke-linecap="round"/>
  <path d="M223 571C247 541 285 523 326 523H403C445 523 483 542 507 574L561 647H167L223 571Z" fill="#F8FAFC"/>
  <path d="M191 647H545V1013C545 1057 509 1093 465 1093H271C227 1093 191 1057 191 1013V647Z" fill="#F8FAFC"/>
  <path d="M231 714H506" stroke="#E2E8F0" stroke-width="12"/>
  <path d="M231 783H506" stroke="#E2E8F0" stroke-width="12"/>
  <path d="M231 852H506" stroke="#E2E8F0" stroke-width="12"/>
  <path d="M286 1002V1118" stroke="#8B5E34" stroke-width="18" stroke-linecap="round"/>
  <path d="M446 1002V1118" stroke="#8B5E34" stroke-width="18" stroke-linecap="round"/>
  <defs>
    <linearGradient id="paint0_linear" x1="600" y1="0" x2="600" y2="1400" gradientUnits="userSpaceOnUse">
      <stop stop-color="#A8D5E5"/>
      <stop offset="0.38" stop-color="#79C0D6"/>
      <stop offset="1" stop-color="#E7D9C0"/>
    </linearGradient>
    <linearGradient id="paint1_linear" x1="600" y1="0" x2="600" y2="500" gradientUnits="userSpaceOnUse">
      <stop stop-color="#BFE4F0"/>
      <stop offset="1" stop-color="#8FC7D8"/>
    </linearGradient>
  </defs>
</svg>